<svg width="18" height="18" viewBox="0 0 18 18" fill="none" xmlns="http://www.w3.org/2000/svg">
<g clip-path="url(#clip0)">
<path d="M11.4828 6.52144C11.25 6.52144 11.0613 6.71015 11.0613 6.94298V14.9102C11.0613 15.1429 11.25 15.3317 11.4828 15.3317C11.7157 15.3317 11.9044 15.1429 11.9044 14.9102V6.94298C11.9044 6.71015 11.7157 6.52144 11.4828 6.52144Z" fill="#6C6C6C"/>
<path d="M6.5087 6.52144C6.27587 6.52144 6.08716 6.71015 6.08716 6.94298V14.9102C6.08716 15.1429 6.27587 15.3317 6.5087 15.3317C6.74154 15.3317 6.93025 15.1429 6.93025 14.9102V6.94298C6.93025 6.71015 6.74154 6.52144 6.5087 6.52144Z" fill="#6C6C6C"/>
<path d="M2.88329 5.35874V15.7447C2.88329 16.3586 3.10839 16.9351 3.50161 17.3487C3.89302 17.7635 4.43773 17.999 5.00781 18H12.9836C13.5538 17.999 14.0985 17.7635 14.4898 17.3487C14.883 16.9351 15.1081 16.3586 15.1081 15.7447V5.35874C15.8897 5.15126 16.3963 4.39611 16.2917 3.59402C16.187 2.7921 15.5038 2.19222 14.6949 2.19206H12.5367V1.66512C12.5391 1.22201 12.3639 0.796513 12.0502 0.483484C11.7365 0.170619 11.3104 -0.00359778 10.8673 2.48699e-05H7.12409C6.68098 -0.00359778 6.25482 0.170619 5.94113 0.483484C5.62744 0.796513 5.45224 1.22201 5.45471 1.66512V2.19206H3.29644C2.4876 2.19222 1.8044 2.7921 1.69967 3.59402C1.59511 4.39611 2.10162 5.15126 2.88329 5.35874ZM12.9836 17.1569H5.00781C4.28707 17.1569 3.72638 16.5377 3.72638 15.7447V5.39579H14.265V15.7447C14.265 16.5377 13.7043 17.1569 12.9836 17.1569ZM6.2978 1.66512C6.295 1.44563 6.38128 1.23436 6.53706 1.07941C6.69267 0.924458 6.90443 0.839326 7.12409 0.843113H10.8673C11.0869 0.839326 11.2987 0.924458 11.4543 1.07941C11.6101 1.23419 11.6964 1.44563 11.6936 1.66512V2.19206H6.2978V1.66512ZM3.29644 3.03514H14.6949C15.114 3.03514 15.4537 3.37485 15.4537 3.79392C15.4537 4.213 15.114 4.5527 14.6949 4.5527H3.29644C2.87736 4.5527 2.53766 4.213 2.53766 3.79392C2.53766 3.37485 2.87736 3.03514 3.29644 3.03514Z" fill="#6C6C6C"/>
<path d="M8.99576 6.52144C8.76293 6.52144 8.57422 6.71015 8.57422 6.94298V14.9102C8.57422 15.1429 8.76293 15.3317 8.99576 15.3317C9.2286 15.3317 9.41731 15.1429 9.41731 14.9102V6.94298C9.41731 6.71015 9.2286 6.52144 8.99576 6.52144Z" fill="#6C6C6C"/>
</g>
<defs>
<clipPath id="clip0">
<rect width="18" height="18" fill="white"/>
</clipPath>
</defs>
</svg>
