<svg width="34" height="33" viewBox="0 0 34 33" fill="none" xmlns="http://www.w3.org/2000/svg">
<path d="M30.6737 8.54284L29.3433 6.42679L29.3433 6.42679L30.6737 8.54284ZM31.6648 5.83014C33.0107 6.1362 33.8531 7.47601 33.5464 8.82268L28.5475 30.768C28.2408 32.1147 26.901 32.9583 25.5552 32.6522C24.2093 32.3462 23.3669 31.0064 23.6736 29.6597L28.117 10.1527L8.62141 5.71939C7.27551 5.41333 6.43313 4.07352 6.73988 2.72685C7.04663 1.38017 8.38637 0.536584 9.73226 0.84264L31.6648 5.83014ZM29.3433 6.42679L29.779 6.15247L32.4398 10.3846L32.0042 10.6589L29.3433 6.42679ZM0.600896 15.5485C10.8014 15.0118 20.6963 11.8715 29.3433 6.42679L32.0042 10.6589C22.6348 16.5585 11.9131 19.9612 0.86037 20.5427L0.600896 15.5485Z" fill="#6C6C6C"/>
</svg>
