<svg width="34" height="34" viewBox="0 0 34 34" fill="none" xmlns="http://www.w3.org/2000/svg">
<path d="M2.99023 9.33959L1.72741 11.4967L1.72742 11.4967L2.99023 9.33959ZM1.91274 6.65907C0.577193 7.00763 -0.222377 8.37345 0.12684 9.70972L5.8177 31.4855C6.16692 32.8217 7.53269 33.6224 8.86823 33.2739C10.2038 32.9253 11.0033 31.5595 10.6541 30.2232L5.59558 10.867L24.9413 5.81803C26.2768 5.46947 27.0764 4.10365 26.7272 2.76738C26.378 1.43111 25.0122 0.630416 23.6766 0.978974L1.91274 6.65907ZM4.25305 7.18246L3.80787 6.92146L1.28223 11.2357L1.72741 11.4967L4.25305 7.18246ZM33.2327 15.6727C23.0236 15.2677 13.0701 12.3516 4.25305 7.18246L1.72742 11.4967C11.2535 17.0815 22.0074 20.2321 33.0375 20.6698L33.2327 15.6727Z" fill="#6C6C6C"/>
</svg>
