<svg width="27" height="28" viewBox="0 0 27 28" fill="none" xmlns="http://www.w3.org/2000/svg">
<path d="M26.6911 26.1325L19.0735 18.2328C22.5441 13.8537 22.308 7.353 18.3642 3.26314H18.3641C14.1687 -1.08774 7.34206 -1.08769 3.14662 3.26314C-1.04887 7.61403 -1.04887 14.6934 3.14662 19.0443C7.08935 23.133 13.357 23.3806 17.5816 19.7799L25.1992 27.6796C25.6113 28.1069 26.2791 28.1068 26.6911 27.6796C27.103 27.2524 27.103 26.5597 26.6911 26.1325ZM16.8723 17.4972C13.4995 20.995 8.01131 20.9949 4.63847 17.4972C1.26558 13.9993 1.26558 8.30801 4.63847 4.8102C8.01125 1.31249 13.4994 1.31233 16.8723 4.8102C20.2452 8.30801 20.2452 13.9993 16.8723 17.4972Z" fill="#6C6C6C"/>
<path d="M15.92 10.0598H5.59005C5.00745 10.0598 4.53516 10.5496 4.53516 11.1538C4.53516 11.7579 5.00745 12.2477 5.59005 12.2477H15.92C16.5026 12.2477 16.9749 11.7579 16.9749 11.1538C16.9749 10.5496 16.5026 10.0598 15.92 10.0598Z" fill="#6C6C6C"/>
</svg>
