<svg width="27" height="28" viewBox="0 0 27 28" fill="none" xmlns="http://www.w3.org/2000/svg">
<path d="M26.691 26.1325L19.0734 18.2328C22.5441 13.8537 22.308 7.35302 18.3641 3.26316C14.1686 -1.08772 7.34211 -1.08772 3.14662 3.26316C-1.04887 7.61404 -1.04887 14.6934 3.14662 19.0443C7.08936 23.133 13.357 23.3806 17.5816 19.7799L25.1992 27.6796C25.6111 28.1068 26.279 28.1068 26.691 27.6796C27.103 27.2523 27.103 26.5597 26.691 26.1325ZM16.8723 17.4972C13.4994 20.995 8.01136 20.9949 4.63847 17.4972C1.26559 13.9994 1.26559 8.30803 4.63847 4.81021C8.01126 1.31257 13.4993 1.31229 16.8723 4.81021C20.2452 8.30803 20.2452 13.9994 16.8723 17.4972Z" fill="#6C6C6C"/>
<path d="M15.9196 10.0597H11.8095V5.7974C11.8095 5.19321 11.3372 4.70343 10.7546 4.70343C10.172 4.70343 9.69968 5.19321 9.69968 5.7974V10.0597H5.58957C5.00696 10.0597 4.53467 10.5495 4.53467 11.1537C4.53467 11.7579 5.00696 12.2477 5.58957 12.2477H9.69968V16.51C9.69968 17.1142 10.172 17.604 10.7546 17.604C11.3372 17.604 11.8095 17.1142 11.8095 16.51V12.2477H15.9196C16.5022 12.2477 16.9745 11.7579 16.9745 11.1537C16.9745 10.5495 16.5022 10.0597 15.9196 10.0597Z" fill="#6C6C6C"/>
</svg>
