<svg width="16" height="16" viewBox="0 0 16 16" fill="none" xmlns="http://www.w3.org/2000/svg">
<path d="M2.34375 15.8172H7.5625V10.3234H5.6875V8.51222H7.5625V6.24828C7.5625 4.99994 8.61389 3.98435 9.90625 3.98435H12.25V5.7955H10.375C9.85803 5.7955 9.4375 6.20171 9.4375 6.70107V8.51222H12.1654L11.8529 10.3234H9.4375V15.8172H13.6562C14.9486 15.8172 16 14.8016 16 13.5532V2.62599C16 1.37765 14.9486 0.362061 13.6562 0.362061H2.34375C1.05139 0.362061 0 1.37765 0 2.62599V13.5532C0 14.8016 1.05139 15.8172 2.34375 15.8172ZM0.9375 2.62599C0.9375 1.87701 1.56836 1.26763 2.34375 1.26763H13.6562C14.4316 1.26763 15.0625 1.87701 15.0625 2.62599V13.5532C15.0625 14.3022 14.4316 14.9116 13.6562 14.9116H10.375V11.2289H12.6471L13.2721 7.60664H10.375V6.70107H13.1875V3.07878H9.90625C8.09692 3.07878 6.625 4.50058 6.625 6.24828V7.60664H4.75V11.2289H6.625V14.9116H2.34375C1.56836 14.9116 0.9375 14.3022 0.9375 13.5532V2.62599Z" fill="#F5F5F5"/>
</svg>
