<svg width="16" height="16" viewBox="0 0 16 16" fill="none" xmlns="http://www.w3.org/2000/svg">
<path d="M2.34375 15.8172H13.6562C14.9486 15.8172 16 14.8016 16 13.5532V2.62599C16 1.37765 14.9486 0.362061 13.6562 0.362061H2.34375C1.05139 0.362061 0 1.37765 0 2.62599V13.5532C0 14.8016 1.05139 15.8172 2.34375 15.8172ZM0.9375 2.62599C0.9375 1.87701 1.56836 1.26763 2.34375 1.26763H13.6562C14.4316 1.26763 15.0625 1.87701 15.0625 2.62599V13.5532C15.0625 14.3022 14.4316 14.9116 13.6562 14.9116H2.34375C1.56836 14.9116 0.9375 14.3022 0.9375 13.5532V2.62599Z" fill="#F5F5F5"/>
<path d="M8.57178 11.4015C10.7773 11.4015 12.5718 9.66821 12.5718 7.53784C12.5718 5.40747 10.7773 3.67419 8.57178 3.67419C6.36622 3.67419 4.57178 5.40747 4.57178 7.53784C4.57178 9.66821 6.36622 11.4015 8.57178 11.4015ZM8.57178 4.53278C10.2873 4.53278 11.6829 5.88081 11.6829 7.53784C11.6829 9.19487 10.2873 10.5429 8.57178 10.5429C6.85627 10.5429 5.46067 9.19487 5.46067 7.53784C5.46067 5.88081 6.85627 4.53278 8.57178 4.53278Z" fill="#F5F5F5"/>
<path d="M13.1432 3.67339C13.4583 3.67339 13.7146 3.42584 13.7146 3.12158C13.7146 2.81731 13.4583 2.56976 13.1432 2.56976C12.8281 2.56976 12.5718 2.81731 12.5718 3.12158C12.5718 3.42584 12.8281 3.67339 13.1432 3.67339ZM13.1432 2.93764C13.2482 2.93764 13.3337 3.02017 13.3337 3.12158C13.3337 3.22298 13.2482 3.30552 13.1432 3.30552C13.0382 3.30552 12.9527 3.22298 12.9527 3.12158C12.9527 3.02017 13.0382 2.93764 13.1432 2.93764Z" fill="#F5F5F5"/>
</svg>
