<svg width="17" height="15" viewBox="0 0 17 15" fill="none" xmlns="http://www.w3.org/2000/svg">
<path d="M17 2.26292C15.9306 2.31424 15.954 2.31005 15.8331 2.32059L16.4664 0.437134C16.4664 0.437134 14.4895 1.19443 13.9884 1.3299C12.6722 0.0979908 10.7158 0.0435604 9.31711 0.938758C8.17173 1.67202 7.55695 2.93121 7.76201 4.40299C5.53286 4.08087 3.65468 2.98051 2.17182 1.12555L1.70283 0.538972L1.35238 1.20915C0.909454 2.056 0.762375 3.02427 0.938118 3.93554C1.01023 4.30939 1.1328 4.66596 1.30257 4.99983L0.900246 4.83749L0.852516 5.53752C0.804138 6.24863 1.0315 7.07873 1.46081 7.75782C1.58169 7.94907 1.73733 8.15909 1.9346 8.36628L1.72669 8.33306L1.98038 9.1352C2.31384 10.1891 3.00644 11.0045 3.90526 11.4577C3.00761 11.8544 2.28246 12.1075 1.09052 12.5158L0 12.8891L1.00725 13.4626C1.39129 13.6813 2.74834 14.4116 4.08917 14.6306C7.06967 15.1174 10.4254 14.721 12.6845 12.6023C14.5873 10.8177 15.2117 8.27917 15.082 5.63747C15.0624 5.23755 15.1676 4.85586 15.3782 4.56291C15.8001 3.97633 16.9974 2.26683 17 2.26292ZM14.5817 3.94162C14.2319 4.42798 14.0567 5.04913 14.0881 5.69041C14.219 8.35507 13.5228 10.4215 12.0186 11.8321C10.2616 13.48 7.42751 14.1269 4.24339 13.6067C3.66674 13.5126 3.07077 13.3018 2.57752 13.0912C3.57686 12.7331 4.34857 12.414 5.59486 11.7997L7.33465 10.9422L5.4138 10.8142C4.49371 10.7528 3.72757 10.2885 3.25663 9.53458C3.50669 9.51945 3.7478 9.47731 3.98788 9.40762L5.81989 8.87628L3.97257 8.40518C3.07492 8.17625 2.56326 7.61695 2.29205 7.18799C2.11398 6.90611 1.99763 6.61735 1.92786 6.35114C2.11307 6.40287 2.32902 6.43974 2.67726 6.47567L4.38709 6.65179L3.03238 5.5513C2.05626 4.75848 1.66508 3.56736 1.95185 2.42229C4.99824 5.7127 8.5751 5.4654 8.93514 5.55238C8.8559 4.75078 8.85382 4.74889 8.83307 4.67258C8.37199 2.97524 9.38248 2.1134 9.83824 1.82167C10.7902 1.2124 12.3014 1.12055 13.348 2.12434C13.5741 2.34098 13.8798 2.42621 14.1659 2.35219C14.4227 2.28574 14.6335 2.21537 14.8399 2.13879L14.4103 3.41622L14.9587 3.41663C14.8552 3.56114 14.731 3.73416 14.5817 3.94162Z" fill="#F5F5F5"/>
</svg>
